<svg width="16" height="16" viewBox="0 0 16 16" fill="none" xmlns="http://www.w3.org/2000/svg">
<path d="M10.2116 2.23645C10.6007 2.39131 10.8758 2.67046 11.1225 3.07971L11.2037 3.22095L11.5052 3.79905L11.5151 3.81519L11.5241 3.82924L11.5497 3.86425C11.6871 4.01392 11.917 4.10433 12.0687 4.10433C13.4586 4.10433 14.5937 5.19584 14.6633 6.56803L14.6667 6.70167V10.565C14.6667 12.3463 13.2599 13.8 11.4971 13.8753L11.3534 13.8783H4.64671C2.86493 13.8783 1.41169 12.4717 1.33644 10.7087L1.33337 10.565V6.70167C1.33337 5.2674 2.49669 4.10433 3.93137 4.10433C4.08256 4.10433 4.31276 4.01379 4.45033 3.86425L4.45507 3.85866L4.46101 3.85089L4.49529 3.7983L4.79592 3.22113C5.06389 2.73412 5.3554 2.40855 5.78796 2.23638C6.58063 1.9212 9.41956 1.9212 10.2116 2.23645ZM6.15761 3.16555C6.01002 3.2243 5.87639 3.36028 5.73379 3.596L5.67205 3.7032L5.41548 4.19927L5.35233 4.31355C5.29961 4.40124 5.24688 4.47526 5.18667 4.54086C4.87973 4.8745 4.43902 5.0672 4.04725 5.09948L3.93137 5.10433L3.82198 5.10802C3.02669 5.16179 2.39085 5.79749 2.33706 6.59233L2.33337 6.70167V10.565C2.33337 11.7999 3.3012 12.809 4.51978 12.8749L4.64671 12.8783H11.3534C12.588 12.8783 13.5974 11.9101 13.6633 10.6919L13.6667 10.565V6.70167C13.6667 5.85648 13.0095 5.16424 12.1781 5.10802L12.0687 5.10433L11.9526 5.09948C11.5603 5.0672 11.1196 4.87444 10.813 4.54042C10.7536 4.47568 10.7011 4.40219 10.6487 4.31525L10.6361 4.29369L10.6211 4.26693L10.5437 4.12176L10.3278 3.70339C10.182 3.43865 10.0485 3.27685 9.90431 3.19554L9.8418 3.16555L9.76225 3.13911C9.07615 2.94519 6.68965 2.954 6.15761 3.16555ZM7.99984 6.1328C9.44665 6.1328 10.6192 7.30532 10.6192 8.75213C10.6192 10.1989 9.44665 11.3715 7.99984 11.3715C6.55303 11.3715 5.38051 10.1989 5.38051 8.75213C5.38051 7.30532 6.55303 6.1328 7.99984 6.1328ZM7.99984 7.1328C7.10532 7.1328 6.38051 7.85761 6.38051 8.75213C6.38051 9.64666 7.10532 10.3715 7.99984 10.3715C8.89436 10.3715 9.61917 9.64666 9.61917 8.75213C9.61917 7.85761 8.89436 7.1328 7.99984 7.1328ZM11.6696 5.6668C12.0378 5.6668 12.3362 5.96528 12.3362 6.33347C12.3362 6.67536 12.0789 6.95714 11.7473 6.99565L11.6696 7.00013C11.2954 7.00013 10.9969 6.70166 10.9969 6.33347C10.9969 5.99158 11.2543 5.7098 11.5858 5.67129L11.6696 5.6668Z" fill="black"/>
</svg>
