<svg width="206" height="72" viewBox="0 0 206 72" fill="none" xmlns="http://www.w3.org/2000/svg">
<path d="M19.4045 13.512C20.1005 13.536 21.0125 13.56 22.1405 13.584C23.2925 13.608 24.4445 13.62 25.5965 13.62C26.7965 13.62 27.9485 13.608 29.0525 13.584C30.1565 13.56 30.9365 13.548 31.3925 13.548C33.8405 13.548 35.8565 13.776 37.4405 14.232C39.0485 14.688 40.2485 15.384 41.0405 16.32C41.8325 17.232 42.2285 18.396 42.2285 19.812C42.2285 20.7 42.0485 21.564 41.6885 22.404C41.3285 23.244 40.7165 24.012 39.8525 24.708C38.9885 25.38 37.8005 25.92 36.2885 26.328C34.8005 26.712 32.9045 26.904 30.6005 26.904H27.1445V26.184H30.2405C31.4645 26.184 32.3885 25.92 33.0125 25.392C33.6605 24.84 34.0925 24.12 34.3085 23.232C34.5485 22.32 34.6685 21.312 34.6685 20.208C34.6685 18.312 34.4045 16.848 33.8765 15.816C33.3725 14.76 32.4845 14.232 31.2125 14.232C30.3965 14.232 29.8685 14.436 29.6285 14.844C29.3885 15.252 29.2685 16.08 29.2685 17.328V35.184C29.2685 36.048 29.3285 36.696 29.4485 37.128C29.5925 37.56 29.8445 37.848 30.2045 37.992C30.5645 38.136 31.1045 38.232 31.8245 38.28V39C31.1285 38.952 30.2285 38.928 29.1245 38.928C28.0445 38.904 26.9405 38.892 25.8125 38.892C24.5165 38.892 23.2925 38.904 22.1405 38.928C21.0125 38.928 20.1005 38.952 19.4045 39V38.28C20.1485 38.232 20.7005 38.136 21.0605 37.992C21.4205 37.848 21.6605 37.56 21.7805 37.128C21.9005 36.696 21.9605 36.048 21.9605 35.184V17.328C21.9605 16.44 21.9005 15.792 21.7805 15.384C21.6605 14.952 21.4085 14.664 21.0245 14.52C20.6645 14.352 20.1245 14.256 19.4045 14.232V13.512ZM26.9285 26.292C27.7925 26.316 28.6085 26.364 29.3765 26.436C30.1445 26.508 30.8525 26.58 31.5005 26.652C32.1485 26.7 32.7005 26.736 33.1565 26.76C35.7245 26.88 37.6445 27.324 38.9165 28.092C40.2125 28.86 41.0045 29.988 41.2925 31.476L42.0485 35.22C42.2405 36.108 42.4565 36.72 42.6965 37.056C42.9365 37.392 43.2605 37.56 43.6685 37.56C43.9085 37.56 44.1125 37.524 44.2805 37.452C44.4485 37.38 44.6165 37.26 44.7845 37.092L45.2525 37.56C44.5085 38.304 43.6925 38.808 42.8045 39.072C41.9405 39.36 40.9565 39.504 39.8525 39.504C38.2925 39.504 37.0325 39.228 36.0725 38.676C35.1125 38.1 34.5245 37.08 34.3085 35.616L33.7685 32.016C33.6245 31.032 33.4445 30.156 33.2285 29.388C33.0125 28.62 32.7245 28.02 32.3645 27.588C32.0045 27.132 31.5125 26.904 30.8885 26.904H27.0005L26.9285 26.292ZM54.7098 19.812C56.8218 19.812 58.4778 20.436 59.6778 21.684C60.9018 22.908 61.5138 24.972 61.5138 27.876H50.2458L50.1738 27.192H56.2578C56.2818 26.016 56.2338 24.936 56.1138 23.952C55.9938 22.944 55.8018 22.14 55.5378 21.54C55.2738 20.94 54.9138 20.64 54.4578 20.64C53.8098 20.64 53.2818 21.156 52.8738 22.188C52.4658 23.196 52.2018 24.936 52.0818 27.408L52.2258 27.696C52.2018 27.936 52.1898 28.176 52.1898 28.416C52.1898 28.656 52.1898 28.908 52.1898 29.172C52.1898 30.852 52.3938 32.16 52.8018 33.096C53.2338 34.032 53.7618 34.68 54.3858 35.04C55.0338 35.4 55.6818 35.58 56.3298 35.58C56.6658 35.58 57.0618 35.532 57.5178 35.436C57.9978 35.34 58.5138 35.124 59.0658 34.788C59.6178 34.428 60.1578 33.888 60.6858 33.168L61.2978 33.384C61.0098 34.344 60.5418 35.304 59.8938 36.264C59.2698 37.2 58.4538 37.98 57.4458 38.604C56.4378 39.204 55.2138 39.504 53.7738 39.504C52.2378 39.504 50.8338 39.192 49.5618 38.568C48.3138 37.944 47.3178 36.912 46.5738 35.472C45.8298 34.032 45.4578 32.1 45.4578 29.676C45.4578 27.372 45.8658 25.5 46.6818 24.06C47.4978 22.596 48.6018 21.528 49.9938 20.856C51.4098 20.16 52.9818 19.812 54.7098 19.812ZM70.7633 19.812C71.8193 19.812 72.7433 19.932 73.5353 20.172C74.3513 20.388 74.9393 20.592 75.2993 20.784C76.1393 21.288 76.6553 20.976 76.8473 19.848H77.5673C77.5193 20.544 77.4833 21.396 77.4593 22.404C77.4353 23.388 77.4233 24.696 77.4233 26.328H76.7033C76.6073 25.44 76.3913 24.564 76.0553 23.7C75.7433 22.836 75.2753 22.116 74.6513 21.54C74.0513 20.964 73.2593 20.676 72.2753 20.676C71.6753 20.676 71.1713 20.856 70.7633 21.216C70.3553 21.576 70.1513 22.068 70.1513 22.692C70.1513 23.412 70.3673 24.06 70.7993 24.636C71.2313 25.188 71.7833 25.728 72.4553 26.256C73.1273 26.76 73.7993 27.3 74.4713 27.876C75.2153 28.476 75.8753 29.064 76.4513 29.64C77.0273 30.216 77.4833 30.852 77.8193 31.548C78.1793 32.22 78.3593 33.024 78.3593 33.96C78.3593 35.04 78.0233 36 77.3513 36.84C76.7033 37.68 75.8273 38.34 74.7233 38.82C73.6433 39.276 72.4313 39.504 71.0873 39.504C70.2473 39.504 69.5153 39.408 68.8913 39.216C68.2673 39.048 67.7633 38.844 67.3793 38.604C66.9953 38.412 66.6593 38.268 66.3713 38.172C66.1073 38.052 65.8433 37.992 65.5793 37.992C65.3393 37.992 65.1353 38.124 64.9673 38.388C64.7993 38.628 64.6673 38.916 64.5713 39.252H63.8513C63.8993 38.484 63.9353 37.548 63.9593 36.444C63.9833 35.34 63.9953 33.876 63.9953 32.052H64.7153C64.8593 33.324 65.1353 34.452 65.5433 35.436C65.9753 36.42 66.5153 37.2 67.1633 37.776C67.8353 38.328 68.6033 38.604 69.4673 38.604C69.8513 38.604 70.1993 38.532 70.5113 38.388C70.8233 38.244 71.0753 38.028 71.2673 37.74C71.4593 37.452 71.5553 37.08 71.5553 36.624C71.5553 35.568 71.2313 34.68 70.5833 33.96C69.9593 33.24 69.1673 32.448 68.2073 31.584C67.4873 30.912 66.8033 30.264 66.1553 29.64C65.5313 28.992 65.0153 28.296 64.6073 27.552C64.1993 26.784 63.9953 25.932 63.9953 24.996C63.9953 23.916 64.3073 22.992 64.9313 22.224C65.5793 21.456 66.4193 20.868 67.4513 20.46C68.4833 20.028 69.5873 19.812 70.7633 19.812ZM107.152 37.704L107.836 37.884C107.716 39.42 107.44 40.764 107.008 41.916C106.576 43.068 105.976 43.932 105.208 44.508C104.68 44.916 104.008 45.228 103.192 45.444C102.376 45.66 101.548 45.768 100.708 45.768C99.364 45.768 98.032 45.564 96.712 45.156C95.416 44.772 94.108 44.28 92.788 43.68C91.492 43.104 90.148 42.528 88.756 41.952C88.612 41.904 88.456 41.844 88.288 41.772C88.12 41.724 87.988 41.7 87.892 41.7C87.436 41.964 86.932 42.18 86.38 42.348C85.852 42.516 85.348 42.6 84.868 42.6C84.388 42.6 83.98 42.516 83.644 42.348C83.332 42.18 83.176 41.904 83.176 41.52C83.176 40.776 83.836 40.404 85.156 40.404C85.996 40.404 86.908 40.62 87.892 41.052C88.804 40.812 89.584 40.536 90.232 40.224C90.904 39.936 91.588 39.66 92.284 39.396C92.98 39.132 93.82 38.964 94.804 38.892L94.84 39.468C94.072 39.54 93.4 39.672 92.824 39.864C92.272 40.08 91.708 40.308 91.132 40.548C90.58 40.788 89.92 41.016 89.152 41.232C91.216 41.28 92.992 41.316 94.48 41.34C95.992 41.388 97.336 41.376 98.512 41.304C99.712 41.232 100.852 41.088 101.932 40.872C103.252 40.584 104.296 40.212 105.064 39.756C105.856 39.3 106.552 38.616 107.152 37.704ZM94.156 13.008C96.868 13.008 99.244 13.524 101.284 14.556C103.324 15.588 104.908 17.076 106.036 19.02C107.164 20.94 107.728 23.28 107.728 26.04C107.728 28.728 107.152 31.08 106 33.096C104.848 35.112 103.24 36.684 101.176 37.812C99.136 38.94 96.784 39.504 94.12 39.504C91.408 39.504 89.032 38.988 86.992 37.956C84.952 36.924 83.368 35.436 82.24 33.492C81.112 31.548 80.548 29.208 80.548 26.472C80.548 23.784 81.124 21.432 82.276 19.416C83.452 17.4 85.06 15.828 87.1 14.7C89.14 13.572 91.492 13.008 94.156 13.008ZM94.012 13.656C92.812 13.656 91.768 14.196 90.88 15.276C89.992 16.356 89.308 17.844 88.828 19.74C88.348 21.636 88.108 23.832 88.108 26.328C88.108 28.872 88.384 31.092 88.936 32.988C89.488 34.86 90.232 36.312 91.168 37.344C92.104 38.352 93.136 38.856 94.264 38.856C95.464 38.856 96.508 38.316 97.396 37.236C98.284 36.156 98.968 34.668 99.448 32.772C99.928 30.852 100.168 28.656 100.168 26.184C100.168 23.616 99.892 21.396 99.34 19.524C98.788 17.652 98.044 16.212 97.108 15.204C96.172 14.172 95.14 13.656 94.012 13.656ZM122.536 13.512V14.232C121.72 14.256 121.096 14.352 120.664 14.52C120.256 14.664 119.98 14.952 119.836 15.384C119.692 15.792 119.62 16.44 119.62 17.328V35.904C119.62 36.552 119.668 37.044 119.764 37.38C119.86 37.692 120.04 37.908 120.304 38.028C120.568 38.124 120.952 38.172 121.456 38.172H122.644C123.268 38.172 123.94 37.932 124.66 37.452C125.38 36.972 126.076 36.312 126.748 35.472C127.444 34.632 128.044 33.684 128.548 32.628C129.052 31.548 129.412 30.432 129.628 29.28H130.456C130.384 30.144 130.348 31.248 130.348 32.592C130.348 33.216 130.36 34.128 130.384 35.328C130.408 36.504 130.48 37.728 130.6 39C129.376 38.952 127.996 38.928 126.46 38.928C124.924 38.904 123.556 38.892 122.356 38.892C121.708 38.892 120.88 38.892 119.872 38.892C118.888 38.892 117.808 38.904 116.632 38.928C115.48 38.928 114.304 38.94 113.104 38.964C111.928 38.964 110.812 38.976 109.756 39V38.28C110.5 38.232 111.052 38.136 111.412 37.992C111.772 37.848 112.012 37.56 112.132 37.128C112.252 36.696 112.312 36.048 112.312 35.184V17.328C112.312 16.44 112.252 15.792 112.132 15.384C112.012 14.952 111.76 14.664 111.376 14.52C111.016 14.352 110.476 14.256 109.756 14.232V13.512C110.452 13.536 111.364 13.56 112.492 13.584C113.644 13.608 114.868 13.62 116.164 13.62C117.364 13.62 118.54 13.608 119.692 13.584C120.844 13.56 121.792 13.536 122.536 13.512ZM137.079 10.848C138.327 10.848 139.287 11.112 139.959 11.64C140.655 12.144 141.003 12.912 141.003 13.944C141.003 14.976 140.655 15.756 139.959 16.284C139.287 16.788 138.327 17.04 137.079 17.04C135.831 17.04 134.859 16.788 134.163 16.284C133.491 15.756 133.155 14.976 133.155 13.944C133.155 12.912 133.491 12.144 134.163 11.64C134.859 11.112 135.831 10.848 137.079 10.848ZM140.535 19.92V35.652C140.535 36.66 140.679 37.344 140.967 37.704C141.279 38.064 141.807 38.244 142.551 38.244V39C142.071 38.976 141.351 38.952 140.391 38.928C139.431 38.88 138.447 38.856 137.439 38.856C136.431 38.856 135.411 38.88 134.379 38.928C133.347 38.952 132.567 38.976 132.039 39V38.244C132.783 38.244 133.299 38.064 133.587 37.704C133.899 37.344 134.055 36.66 134.055 35.652V24.24C134.055 23.16 133.911 22.368 133.623 21.864C133.335 21.336 132.807 21.072 132.039 21.072V20.316C132.807 20.388 133.551 20.424 134.271 20.424C135.471 20.424 136.587 20.388 137.619 20.316C138.675 20.22 139.647 20.088 140.535 19.92ZM158.142 19.812C159.246 19.812 160.11 19.956 160.734 20.244C161.382 20.508 161.874 20.844 162.21 21.252C162.57 21.684 162.834 22.26 163.002 22.98C163.17 23.7 163.254 24.672 163.254 25.896V35.652C163.254 36.66 163.398 37.344 163.686 37.704C163.998 38.064 164.526 38.244 165.27 38.244V39C164.79 38.976 164.058 38.952 163.074 38.928C162.114 38.88 161.166 38.856 160.23 38.856C159.222 38.856 158.238 38.88 157.278 38.928C156.318 38.952 155.598 38.976 155.118 39V38.244C155.742 38.244 156.174 38.064 156.414 37.704C156.654 37.344 156.774 36.66 156.774 35.652V23.952C156.774 23.448 156.714 23.028 156.594 22.692C156.474 22.356 156.282 22.104 156.018 21.936C155.778 21.768 155.442 21.684 155.01 21.684C154.578 21.684 154.158 21.792 153.75 22.008C153.366 22.224 153.042 22.536 152.778 22.944C152.538 23.328 152.418 23.772 152.418 24.276V35.652C152.418 36.66 152.538 37.344 152.778 37.704C153.042 38.064 153.474 38.244 154.074 38.244V39C153.618 38.976 152.946 38.952 152.058 38.928C151.17 38.88 150.258 38.856 149.322 38.856C148.314 38.856 147.294 38.88 146.262 38.928C145.23 38.952 144.45 38.976 143.922 39V38.244C144.666 38.244 145.182 38.064 145.47 37.704C145.782 37.344 145.938 36.66 145.938 35.652V24.24C145.938 23.16 145.794 22.368 145.506 21.864C145.218 21.336 144.69 21.072 143.922 21.072V20.316C144.69 20.388 145.434 20.424 146.154 20.424C147.354 20.424 148.47 20.388 149.502 20.316C150.558 20.22 151.53 20.088 152.418 19.92V22.512C152.994 21.552 153.762 20.868 154.722 20.46C155.706 20.028 156.846 19.812 158.142 19.812ZM174.81 10.848V35.652C174.81 36.66 174.954 37.344 175.242 37.704C175.554 38.064 176.082 38.244 176.826 38.244V39C176.346 38.976 175.626 38.952 174.666 38.928C173.706 38.88 172.722 38.856 171.714 38.856C170.706 38.856 169.686 38.88 168.654 38.928C167.622 38.952 166.842 38.976 166.314 39V38.244C167.058 38.244 167.574 38.064 167.862 37.704C168.174 37.344 168.33 36.66 168.33 35.652V15.168C168.33 14.088 168.186 13.296 167.898 12.792C167.61 12.264 167.082 12 166.314 12V11.244C167.082 11.316 167.826 11.352 168.546 11.352C169.746 11.352 170.862 11.316 171.894 11.244C172.95 11.148 173.922 11.016 174.81 10.848ZM186.762 20.316V21.036C185.898 21.276 185.022 21.696 184.134 22.296C183.246 22.896 182.346 23.652 181.434 24.564L180.174 25.824L180.426 25.356L186.222 36.372C186.414 36.732 186.618 37.092 186.834 37.452C187.05 37.788 187.326 38.052 187.662 38.244V39C187.254 38.976 186.63 38.952 185.79 38.928C184.974 38.88 184.146 38.856 183.306 38.856C182.346 38.856 181.374 38.88 180.39 38.928C179.43 38.952 178.71 38.976 178.23 39V38.244C178.71 38.244 179.022 38.136 179.166 37.92C179.334 37.704 179.322 37.404 179.13 37.02L175.962 30.324C175.794 29.988 175.602 29.772 175.386 29.676C175.17 29.58 174.918 29.532 174.63 29.532V28.848C174.966 28.848 175.278 28.824 175.566 28.776C175.854 28.704 176.118 28.548 176.358 28.308L179.13 25.716C179.97 24.948 180.39 24.228 180.39 23.556C180.414 22.86 180.15 22.284 179.598 21.828C179.07 21.372 178.374 21.108 177.51 21.036V20.316C178.206 20.34 178.95 20.364 179.742 20.388C180.558 20.412 181.254 20.424 181.83 20.424C182.334 20.424 182.91 20.424 183.558 20.424C184.206 20.4 184.818 20.388 185.394 20.388C185.994 20.364 186.45 20.34 186.762 20.316Z" fill="#5BBEA9"/>
<path d="M4.864 66.112C4.11733 66.112 3.44533 65.984 2.848 65.728C2.25067 65.4613 1.78133 65.088 1.44 64.608C1.09867 64.128 0.928 63.568 0.928 62.928H2.88C2.92267 63.408 3.10933 63.8027 3.44 64.112C3.78133 64.4213 4.256 64.576 4.864 64.576C5.49333 64.576 5.984 64.4267 6.336 64.128C6.688 63.8187 6.864 63.424 6.864 62.944C6.864 62.5707 6.752 62.2667 6.528 62.032C6.31467 61.7973 6.04267 61.616 5.712 61.488C5.392 61.36 4.944 61.2213 4.368 61.072C3.64267 60.88 3.05067 60.688 2.592 60.496C2.144 60.2933 1.76 59.984 1.44 59.568C1.12 59.152 0.96 58.5973 0.96 57.904C0.96 57.264 1.12 56.704 1.44 56.224C1.76 55.744 2.208 55.376 2.784 55.12C3.36 54.864 4.02667 54.736 4.784 54.736C5.86133 54.736 6.74133 55.008 7.424 55.552C8.11733 56.0853 8.50133 56.8213 8.576 57.76H6.56C6.528 57.3547 6.336 57.008 5.984 56.72C5.632 56.432 5.168 56.288 4.592 56.288C4.06933 56.288 3.64267 56.4213 3.312 56.688C2.98133 56.9547 2.816 57.3387 2.816 57.84C2.816 58.1813 2.91733 58.464 3.12 58.688C3.33333 58.9013 3.6 59.072 3.92 59.2C4.24 59.328 4.67733 59.4667 5.232 59.616C5.968 59.8187 6.56533 60.0213 7.024 60.224C7.49333 60.4267 7.888 60.7413 8.208 61.168C8.53867 61.584 8.704 62.144 8.704 62.848C8.704 63.4133 8.54933 63.9467 8.24 64.448C7.94133 64.9493 7.49867 65.3547 6.912 65.664C6.336 65.9627 5.65333 66.112 4.864 66.112ZM12.9843 58.672V63.552C12.9843 63.8827 13.0589 64.1227 13.2083 64.272C13.3683 64.4107 13.6349 64.48 14.0083 64.48H15.1283V66H13.6883C12.8669 66 12.2376 65.808 11.8003 65.424C11.3629 65.04 11.1443 64.416 11.1443 63.552V58.672H10.1043V57.184H11.1443V54.992H12.9843V57.184H15.1283V58.672H12.9843ZM16.2014 61.552C16.2014 60.6667 16.3827 59.8827 16.7454 59.2C17.1187 58.5173 17.62 57.9893 18.2494 57.616C18.8894 57.232 19.5934 57.04 20.3614 57.04C21.0547 57.04 21.6574 57.1787 22.1694 57.456C22.692 57.7227 23.108 58.0587 23.4174 58.464V57.184H25.2574V66H23.4174V64.688C23.108 65.104 22.6867 65.4507 22.1534 65.728C21.62 66.0053 21.012 66.144 20.3294 66.144C19.572 66.144 18.8787 65.952 18.2494 65.568C17.62 65.1733 17.1187 64.6293 16.7454 63.936C16.3827 63.232 16.2014 62.4373 16.2014 61.552ZM23.4174 61.584C23.4174 60.976 23.2894 60.448 23.0334 60C22.788 59.552 22.4627 59.2107 22.0574 58.976C21.652 58.7413 21.2147 58.624 20.7454 58.624C20.276 58.624 19.8387 58.7413 19.4334 58.976C19.028 59.2 18.6974 59.536 18.4414 59.984C18.196 60.4213 18.0734 60.944 18.0734 61.552C18.0734 62.16 18.196 62.6933 18.4414 63.152C18.6974 63.6107 19.028 63.9627 19.4334 64.208C19.8494 64.4427 20.2867 64.56 20.7454 64.56C21.2147 64.56 21.652 64.4427 22.0574 64.208C22.4627 63.9733 22.788 63.632 23.0334 63.184C23.2894 62.7253 23.4174 62.192 23.4174 61.584ZM35.5891 57.184L30.1811 70.144H28.2931L30.0851 65.856L26.6131 57.184H28.6451L31.1251 63.904L33.7011 57.184H35.5891ZM44.7859 66.112C44.0392 66.112 43.3672 65.984 42.7699 65.728C42.1725 65.4613 41.7032 65.088 41.3619 64.608C41.0205 64.128 40.8499 63.568 40.8499 62.928H42.8019C42.8445 63.408 43.0312 63.8027 43.3619 64.112C43.7032 64.4213 44.1779 64.576 44.7859 64.576C45.4152 64.576 45.9059 64.4267 46.2579 64.128C46.6099 63.8187 46.7859 63.424 46.7859 62.944C46.7859 62.5707 46.6739 62.2667 46.4499 62.032C46.2365 61.7973 45.9645 61.616 45.6339 61.488C45.3139 61.36 44.8659 61.2213 44.2899 61.072C43.5645 60.88 42.9725 60.688 42.5139 60.496C42.0659 60.2933 41.6819 59.984 41.3619 59.568C41.0419 59.152 40.8819 58.5973 40.8819 57.904C40.8819 57.264 41.0419 56.704 41.3619 56.224C41.6819 55.744 42.1299 55.376 42.7059 55.12C43.2819 54.864 43.9485 54.736 44.7059 54.736C45.7832 54.736 46.6632 55.008 47.3459 55.552C48.0392 56.0853 48.4232 56.8213 48.4979 57.76H46.4819C46.4499 57.3547 46.2579 57.008 45.9059 56.72C45.5539 56.432 45.0899 56.288 44.5139 56.288C43.9912 56.288 43.5645 56.4213 43.2339 56.688C42.9032 56.9547 42.7379 57.3387 42.7379 57.84C42.7379 58.1813 42.8392 58.464 43.0419 58.688C43.2552 58.9013 43.5219 59.072 43.8419 59.2C44.1619 59.328 44.5992 59.4667 45.1539 59.616C45.8899 59.8187 46.4872 60.0213 46.9459 60.224C47.4152 60.4267 47.8099 60.7413 48.1299 61.168C48.4605 61.584 48.6259 62.144 48.6259 62.848C48.6259 63.4133 48.4712 63.9467 48.1619 64.448C47.8632 64.9493 47.4205 65.3547 46.8339 65.664C46.2579 65.9627 45.5752 66.112 44.7859 66.112ZM50.1701 61.552C50.1701 60.6667 50.3515 59.8827 50.7141 59.2C51.0875 58.5173 51.5888 57.9893 52.2181 57.616C52.8581 57.232 53.5621 57.04 54.3301 57.04C55.0235 57.04 55.6261 57.1787 56.1381 57.456C56.6608 57.7227 57.0768 58.0587 57.3861 58.464V57.184H59.2261V66H57.3861V64.688C57.0768 65.104 56.6555 65.4507 56.1221 65.728C55.5888 66.0053 54.9808 66.144 54.2981 66.144C53.5408 66.144 52.8475 65.952 52.2181 65.568C51.5888 65.1733 51.0875 64.6293 50.7141 63.936C50.3515 63.232 50.1701 62.4373 50.1701 61.552ZM57.3861 61.584C57.3861 60.976 57.2581 60.448 57.0021 60C56.7568 59.552 56.4315 59.2107 56.0261 58.976C55.6208 58.7413 55.1835 58.624 54.7141 58.624C54.2448 58.624 53.8075 58.7413 53.4021 58.976C52.9968 59.2 52.6661 59.536 52.4101 59.984C52.1648 60.4213 52.0421 60.944 52.0421 61.552C52.0421 62.16 52.1648 62.6933 52.4101 63.152C52.6661 63.6107 52.9968 63.9627 53.4021 64.208C53.8181 64.4427 54.2555 64.56 54.7141 64.56C55.1835 64.56 55.6208 64.4427 56.0261 64.208C56.4315 63.9733 56.7568 63.632 57.0021 63.184C57.2581 62.7253 57.3861 62.192 57.3861 61.584ZM65.3179 58.672H63.6859V66H61.8459V58.672H60.8059V57.184H61.8459V56.56C61.8459 55.5467 62.1125 54.8107 62.6459 54.352C63.1899 53.8827 64.0379 53.648 65.1899 53.648V55.168C64.6352 55.168 64.2459 55.2747 64.0219 55.488C63.7979 55.6907 63.6859 56.048 63.6859 56.56V57.184H65.3179V58.672ZM75.0144 61.376C75.0144 61.7067 74.993 62.0053 74.9504 62.272H68.2144C68.2677 62.976 68.529 63.5413 68.9984 63.968C69.4677 64.3947 70.0437 64.608 70.7264 64.608C71.7077 64.608 72.401 64.1973 72.8064 63.376H74.7744C74.5077 64.1867 74.0224 64.8533 73.3184 65.376C72.625 65.888 71.761 66.144 70.7264 66.144C69.8837 66.144 69.1264 65.9573 68.4544 65.584C67.793 65.2 67.2704 64.6667 66.8864 63.984C66.513 63.2907 66.3264 62.4907 66.3264 61.584C66.3264 60.6773 66.5077 59.8827 66.8704 59.2C67.2437 58.5067 67.761 57.9733 68.4224 57.6C69.0944 57.2267 69.8624 57.04 70.7264 57.04C71.5584 57.04 72.2997 57.2213 72.9504 57.584C73.601 57.9467 74.1077 58.4587 74.4704 59.12C74.833 59.7707 75.0144 60.5227 75.0144 61.376ZM73.1104 60.8C73.0997 60.128 72.8597 59.5893 72.3904 59.184C71.921 58.7787 71.3397 58.576 70.6464 58.576C70.017 58.576 69.4784 58.7787 69.0304 59.184C68.5824 59.5787 68.3157 60.1173 68.2304 60.8H73.1104ZM87.6696 63.728H83.0136L82.2136 66H80.3096L84.2936 54.864H86.4056L90.3896 66H88.4696L87.6696 63.728ZM87.1576 62.24L85.3496 57.072L83.5256 62.24H87.1576ZM96.5699 57.04C97.2632 57.04 97.8819 57.184 98.4259 57.472C98.9805 57.76 99.4125 58.1867 99.7219 58.752C100.031 59.3173 100.186 60 100.186 60.8V66H98.3779V61.072C98.3779 60.2827 98.1805 59.68 97.7859 59.264C97.3912 58.8373 96.8525 58.624 96.1699 58.624C95.4872 58.624 94.9432 58.8373 94.5379 59.264C94.1432 59.68 93.9459 60.2827 93.9459 61.072V66H92.1219V57.184H93.9459V58.192C94.2445 57.8293 94.6232 57.5467 95.0819 57.344C95.5512 57.1413 96.0472 57.04 96.5699 57.04ZM101.905 61.552C101.905 60.6667 102.086 59.8827 102.449 59.2C102.822 58.5173 103.323 57.9893 103.953 57.616C104.593 57.232 105.302 57.04 106.081 57.04C106.657 57.04 107.222 57.168 107.777 57.424C108.342 57.6693 108.79 58 109.121 58.416V54.16H110.961V66H109.121V64.672C108.822 65.0987 108.406 65.4507 107.873 65.728C107.35 66.0053 106.747 66.144 106.065 66.144C105.297 66.144 104.593 65.952 103.953 65.568C103.323 65.1733 102.822 64.6293 102.449 63.936C102.086 63.232 101.905 62.4373 101.905 61.552ZM109.121 61.584C109.121 60.976 108.993 60.448 108.737 60C108.491 59.552 108.166 59.2107 107.761 58.976C107.355 58.7413 106.918 58.624 106.449 58.624C105.979 58.624 105.542 58.7413 105.137 58.976C104.731 59.2 104.401 59.536 104.145 59.984C103.899 60.4213 103.777 60.944 103.777 61.552C103.777 62.16 103.899 62.6933 104.145 63.152C104.401 63.6107 104.731 63.9627 105.137 64.208C105.553 64.4427 105.99 64.56 106.449 64.56C106.918 64.56 107.355 64.4427 107.761 64.208C108.166 63.9733 108.491 63.632 108.737 63.184C108.993 62.7253 109.121 62.192 109.121 61.584ZM116.905 60.416C116.905 59.328 117.155 58.352 117.657 57.488C118.169 56.624 118.857 55.952 119.721 55.472C120.595 54.9813 121.55 54.736 122.585 54.736C123.769 54.736 124.819 55.0293 125.737 55.616C126.665 56.192 127.337 57.0133 127.753 58.08H125.561C125.273 57.4933 124.873 57.056 124.361 56.768C123.849 56.48 123.257 56.336 122.585 56.336C121.849 56.336 121.193 56.5013 120.617 56.832C120.041 57.1627 119.587 57.6373 119.257 58.256C118.937 58.8747 118.777 59.5947 118.777 60.416C118.777 61.2373 118.937 61.9573 119.257 62.576C119.587 63.1947 120.041 63.6747 120.617 64.016C121.193 64.3467 121.849 64.512 122.585 64.512C123.257 64.512 123.849 64.368 124.361 64.08C124.873 63.792 125.273 63.3547 125.561 62.768H127.753C127.337 63.8347 126.665 64.656 125.737 65.232C124.819 65.808 123.769 66.096 122.585 66.096C121.539 66.096 120.585 65.856 119.721 65.376C118.857 64.8853 118.169 64.208 117.657 63.344C117.155 62.48 116.905 61.504 116.905 60.416ZM133.712 66.144C132.88 66.144 132.128 65.9573 131.456 65.584C130.784 65.2 130.256 64.6667 129.872 63.984C129.488 63.2907 129.296 62.4907 129.296 61.584C129.296 60.688 129.493 59.8933 129.888 59.2C130.282 58.5067 130.821 57.9733 131.504 57.6C132.186 57.2267 132.949 57.04 133.792 57.04C134.634 57.04 135.397 57.2267 136.08 57.6C136.762 57.9733 137.301 58.5067 137.696 59.2C138.09 59.8933 138.288 60.688 138.288 61.584C138.288 62.48 138.085 63.2747 137.68 63.968C137.274 64.6613 136.72 65.2 136.016 65.584C135.322 65.9573 134.554 66.144 133.712 66.144ZM133.712 64.56C134.181 64.56 134.618 64.448 135.024 64.224C135.44 64 135.776 63.664 136.032 63.216C136.288 62.768 136.416 62.224 136.416 61.584C136.416 60.944 136.293 60.4053 136.048 59.968C135.802 59.52 135.477 59.184 135.072 58.96C134.666 58.736 134.229 58.624 133.76 58.624C133.29 58.624 132.853 58.736 132.448 58.96C132.053 59.184 131.738 59.52 131.504 59.968C131.269 60.4053 131.152 60.944 131.152 61.584C131.152 62.5333 131.392 63.2693 131.872 63.792C132.362 64.304 132.976 64.56 133.712 64.56ZM144.539 57.04C145.232 57.04 145.851 57.184 146.395 57.472C146.949 57.76 147.381 58.1867 147.691 58.752C148 59.3173 148.155 60 148.155 60.8V66H146.347V61.072C146.347 60.2827 146.149 59.68 145.755 59.264C145.36 58.8373 144.821 58.624 144.139 58.624C143.456 58.624 142.912 58.8373 142.507 59.264C142.112 59.68 141.915 60.2827 141.915 61.072V66H140.091V57.184H141.915V58.192C142.213 57.8293 142.592 57.5467 143.051 57.344C143.52 57.1413 144.016 57.04 144.539 57.04ZM154.929 57.04C155.623 57.04 156.241 57.184 156.785 57.472C157.34 57.76 157.772 58.1867 158.081 58.752C158.391 59.3173 158.545 60 158.545 60.8V66H156.737V61.072C156.737 60.2827 156.54 59.68 156.145 59.264C155.751 58.8373 155.212 58.624 154.529 58.624C153.847 58.624 153.303 58.8373 152.897 59.264C152.503 59.68 152.305 60.2827 152.305 61.072V66H150.481V57.184H152.305V58.192C152.604 57.8293 152.983 57.5467 153.441 57.344C153.911 57.1413 154.407 57.04 154.929 57.04ZM168.952 61.376C168.952 61.7067 168.931 62.0053 168.888 62.272H162.152C162.205 62.976 162.467 63.5413 162.936 63.968C163.405 64.3947 163.981 64.608 164.664 64.608C165.645 64.608 166.339 64.1973 166.744 63.376H168.712C168.445 64.1867 167.96 64.8533 167.256 65.376C166.563 65.888 165.699 66.144 164.664 66.144C163.821 66.144 163.064 65.9573 162.392 65.584C161.731 65.2 161.208 64.6667 160.824 63.984C160.451 63.2907 160.264 62.4907 160.264 61.584C160.264 60.6773 160.445 59.8827 160.808 59.2C161.181 58.5067 161.699 57.9733 162.36 57.6C163.032 57.2267 163.8 57.04 164.664 57.04C165.496 57.04 166.237 57.2213 166.888 57.584C167.539 57.9467 168.045 58.4587 168.408 59.12C168.771 59.7707 168.952 60.5227 168.952 61.376ZM167.048 60.8C167.037 60.128 166.797 59.5893 166.328 59.184C165.859 58.7787 165.277 58.576 164.584 58.576C163.955 58.576 163.416 58.7787 162.968 59.184C162.52 59.5787 162.253 60.1173 162.168 60.8H167.048ZM170.139 61.584C170.139 60.6773 170.32 59.8827 170.683 59.2C171.056 58.5067 171.568 57.9733 172.219 57.6C172.87 57.2267 173.616 57.04 174.459 57.04C175.526 57.04 176.406 57.296 177.099 57.808C177.803 58.3093 178.278 59.0293 178.523 59.968H176.555C176.395 59.5307 176.139 59.1893 175.787 58.944C175.435 58.6987 174.992 58.576 174.459 58.576C173.712 58.576 173.115 58.8427 172.667 59.376C172.23 59.8987 172.011 60.6347 172.011 61.584C172.011 62.5333 172.23 63.2747 172.667 63.808C173.115 64.3413 173.712 64.608 174.459 64.608C175.515 64.608 176.214 64.144 176.555 63.216H178.523C178.267 64.112 177.787 64.8267 177.083 65.36C176.379 65.8827 175.504 66.144 174.459 66.144C173.616 66.144 172.87 65.9573 172.219 65.584C171.568 65.2 171.056 64.6667 170.683 63.984C170.32 63.2907 170.139 62.4907 170.139 61.584ZM182.469 58.672V63.552C182.469 63.8827 182.543 64.1227 182.693 64.272C182.853 64.4107 183.119 64.48 183.493 64.48H184.613V66H183.173C182.351 66 181.722 65.808 181.285 65.424C180.847 65.04 180.629 64.416 180.629 63.552V58.672H179.589V57.184H180.629V54.992H182.469V57.184H184.613V58.672H182.469ZM194.374 61.376C194.374 61.7067 194.352 62.0053 194.31 62.272H187.574C187.627 62.976 187.888 63.5413 188.358 63.968C188.827 64.3947 189.403 64.608 190.086 64.608C191.067 64.608 191.76 64.1973 192.166 63.376H194.134C193.867 64.1867 193.382 64.8533 192.678 65.376C191.984 65.888 191.12 66.144 190.086 66.144C189.243 66.144 188.486 65.9573 187.814 65.584C187.152 65.2 186.63 64.6667 186.246 63.984C185.872 63.2907 185.686 62.4907 185.686 61.584C185.686 60.6773 185.867 59.8827 186.23 59.2C186.603 58.5067 187.12 57.9733 187.782 57.6C188.454 57.2267 189.222 57.04 190.086 57.04C190.918 57.04 191.659 57.2213 192.31 57.584C192.96 57.9467 193.467 58.4587 193.83 59.12C194.192 59.7707 194.374 60.5227 194.374 61.376ZM192.47 60.8C192.459 60.128 192.219 59.5893 191.75 59.184C191.28 58.7787 190.699 58.576 190.006 58.576C189.376 58.576 188.838 58.7787 188.39 59.184C187.942 59.5787 187.675 60.1173 187.59 60.8H192.47ZM195.561 61.552C195.561 60.6667 195.742 59.8827 196.105 59.2C196.478 58.5173 196.979 57.9893 197.609 57.616C198.249 57.232 198.958 57.04 199.737 57.04C200.313 57.04 200.878 57.168 201.433 57.424C201.998 57.6693 202.446 58 202.777 58.416V54.16H204.617V66H202.777V64.672C202.478 65.0987 202.062 65.4507 201.529 65.728C201.006 66.0053 200.403 66.144 199.721 66.144C198.953 66.144 198.249 65.952 197.609 65.568C196.979 65.1733 196.478 64.6293 196.105 63.936C195.742 63.232 195.561 62.4373 195.561 61.552ZM202.777 61.584C202.777 60.976 202.649 60.448 202.393 60C202.147 59.552 201.822 59.2107 201.417 58.976C201.011 58.7413 200.574 58.624 200.105 58.624C199.635 58.624 199.198 58.7413 198.793 58.976C198.387 59.2 198.057 59.536 197.801 59.984C197.555 60.4213 197.433 60.944 197.433 61.552C197.433 62.16 197.555 62.6933 197.801 63.152C198.057 63.6107 198.387 63.9627 198.793 64.208C199.209 64.4427 199.646 64.56 200.105 64.56C200.574 64.56 201.011 64.4427 201.417 64.208C201.822 63.9733 202.147 63.632 202.393 63.184C202.649 62.7253 202.777 62.192 202.777 61.584Z" fill="#5BBEA9"/>
</svg>
