<svg width="24" height="24" viewBox="0 0 24 24" fill="none" xmlns="http://www.w3.org/2000/svg">
<path d="M8.625 12C9.24632 12 9.75 11.4963 9.75 10.875C9.75 10.2537 9.24632 9.75 8.625 9.75C8.00368 9.75 7.5 10.2537 7.5 10.875C7.5 11.4963 8.00368 12 8.625 12Z" fill="#FFB74D"/>
<path d="M11.9999 13.5C14.129 13.5 15.9196 14.8842 16.4864 16.7733C16.5023 16.8297 16.5047 16.889 16.4936 16.9466C16.4824 17.0041 16.4579 17.0582 16.422 17.1046C16.3861 17.1509 16.3399 17.1882 16.287 17.2135C16.2341 17.2387 16.176 17.2512 16.1174 17.25H7.88198C7.82357 17.2509 7.76578 17.2381 7.71319 17.2127C7.6606 17.1873 7.61467 17.1499 7.57907 17.1036C7.54346 17.0573 7.51917 17.0033 7.50812 16.946C7.49707 16.8886 7.49956 16.8295 7.51541 16.7733C8.07745 14.8842 9.86854 13.5 11.9999 13.5Z" fill="#FFB74D"/>
<path d="M15.375 12C15.9963 12 16.5 11.4963 16.5 10.875C16.5 10.2537 15.9963 9.75 15.375 9.75C14.7537 9.75 14.25 10.2537 14.25 10.875C14.25 11.4963 14.7537 12 15.375 12Z" fill="#FFB74D"/>
<path d="M12 21.75C17.3848 21.75 21.75 17.3848 21.75 12C21.75 6.61522 17.3848 2.25 12 2.25C6.61522 2.25 2.25 6.61522 2.25 12C2.25 17.3848 6.61522 21.75 12 21.75Z" stroke="#FFB74D" stroke-width="1.5" stroke-miterlimit="10"/>
</svg>
