<svg width="24" height="24" viewBox="0 0 24 24" fill="none" xmlns="http://www.w3.org/2000/svg">
<path d="M8.625 12C9.24632 12 9.75 11.4963 9.75 10.875C9.75 10.2537 9.24632 9.75 8.625 9.75C8.00368 9.75 7.5 10.2537 7.5 10.875C7.5 11.4963 8.00368 12 8.625 12Z" fill="#81C784"/>
<path d="M12.0023 18C9.87325 18 8.08262 16.6158 7.5159 14.7268C7.50005 14.6705 7.49755 14.6114 7.5086 14.5541C7.51966 14.4967 7.54395 14.4427 7.57955 14.3964C7.61516 14.3501 7.66108 14.3128 7.71367 14.2874C7.76626 14.2619 7.82406 14.2492 7.88246 14.25H16.1179C16.1763 14.2492 16.2341 14.2619 16.2867 14.2874C16.3393 14.3128 16.3852 14.3501 16.4208 14.3964C16.4564 14.4427 16.4807 14.4967 16.4918 14.5541C16.5028 14.6114 16.5003 14.6705 16.4845 14.7268C15.9225 16.6158 14.1314 18 12.0023 18Z" fill="#81C784"/>
<path d="M15.375 12C15.9963 12 16.5 11.4963 16.5 10.875C16.5 10.2537 15.9963 9.75 15.375 9.75C14.7537 9.75 14.25 10.2537 14.25 10.875C14.25 11.4963 14.7537 12 15.375 12Z" fill="#81C784"/>
<path d="M12 21.75C17.3848 21.75 21.75 17.3848 21.75 12C21.75 6.61522 17.3848 2.25 12 2.25C6.61522 2.25 2.25 6.61522 2.25 12C2.25 17.3848 6.61522 21.75 12 21.75Z" stroke="#81C784" stroke-width="1.5" stroke-miterlimit="10"/>
</svg>
