<svg width="18" height="13" viewBox="0 0 18 13" fill="none" xmlns="http://www.w3.org/2000/svg">
<path d="M10.131 12.4323C10.2798 12.2841 10.3979 12.1079 10.4785 11.914C10.5591 11.72 10.6006 11.512 10.6006 11.3019C10.6006 11.0918 10.5591 10.8839 10.4785 10.6899C10.3979 10.4959 10.2798 10.3197 10.131 10.1715C9.98283 10.0223 9.80666 9.90386 9.61258 9.82299C9.4185 9.74211 9.21035 9.7004 9.0001 9.70025C8.78985 9.70011 8.58164 9.74152 8.38745 9.82212C8.19326 9.90272 8.01692 10.0209 7.86857 10.1699C7.71575 10.3175 7.59386 10.4941 7.51001 10.6893C7.42615 10.8845 7.38201 11.0944 7.38017 11.3069C7.37832 11.5193 7.4188 11.73 7.49925 11.9266C7.5797 12.1233 7.69851 12.3019 7.84874 12.4521C7.99896 12.6024 8.17761 12.7212 8.37424 12.8016C8.57088 12.8821 8.78156 12.9226 8.99401 12.9207C9.20646 12.9189 9.41641 12.8747 9.61161 12.7909C9.80682 12.707 9.98337 12.5851 10.131 12.4323ZM15.7878 6.11471C15.3635 6.11462 14.9566 5.94599 14.6566 5.64591C11.5374 2.52671 6.46217 2.52751 3.34217 5.64591C3.04205 5.94603 2.635 6.11463 2.21057 6.11463C1.78614 6.11463 1.37909 5.94603 1.07897 5.64591C0.778849 5.34579 0.610244 4.93874 0.610244 4.51431C0.610244 4.08988 0.778849 3.68283 1.07897 3.38271C5.44617 -0.98369 12.5518 -0.98369 16.9182 3.38271C17.1421 3.60638 17.2946 3.89144 17.3565 4.20183C17.4184 4.51221 17.3869 4.83398 17.2659 5.12643C17.1449 5.41889 16.9398 5.66888 16.6767 5.8448C16.4136 6.02071 16.1043 6.11464 15.7878 6.11471ZM5.60537 9.50831C5.28897 9.50824 4.97969 9.41437 4.71663 9.23855C4.45358 9.06274 4.24856 8.81288 4.12748 8.52056C4.00641 8.22824 3.97473 7.90658 4.03643 7.59626C4.09814 7.28593 4.25047 7.00087 4.47417 6.77711C6.96857 4.28191 11.0294 4.28191 13.5246 6.77711C13.8247 7.07723 13.9933 7.48428 13.9933 7.90871C13.9933 8.33314 13.8247 8.74019 13.5246 9.04031C13.2244 9.34043 12.8174 9.50903 12.393 9.50903C11.9685 9.50903 11.5615 9.34043 11.2614 9.04031C10.6607 8.44114 9.84696 8.10465 8.99857 8.10465C8.15017 8.10465 7.33641 8.44114 6.73577 9.04031C6.43584 9.3399 6.02929 9.50822 5.60537 9.50831Z" fill="black"/>
</svg>
