<svg width="148" height="148" viewBox="0 0 148 148" fill="none" xmlns="http://www.w3.org/2000/svg">
<rect width="148" height="148" rx="74" fill="#D9D9D9"/>
<path d="M92.1448 81.252H81.5628V92.1152H66.4372V81.252H55.8552V66.8368H66.4372V55.8996H81.5628V66.8368H92.1448V81.252Z" fill="#5BBEA9"/>
<path d="M130.24 0H17.76C7.992 0 0 7.992 0 17.76V130.24C0 140.008 7.992 148 17.76 148H130.24C140.008 148 148 140.008 148 130.24V17.76C148 7.992 140.008 0 130.24 0ZM103.718 85.4552C104.414 87.5716 104.725 89.6584 104.725 91.6564C104.725 106.412 87.3348 116.728 74 107.048C70.3888 109.668 66.4816 110.822 62.7076 110.822C50.6308 110.822 39.8712 99.012 44.2816 85.4552C38.7464 81.4444 36.2748 75.702 36.2748 70.0336C36.2748 60.1768 43.7488 50.5272 55.6332 50.5272C58.534 41.6324 66.2596 37.1776 74 37.1776C81.7404 37.1776 89.466 41.6324 92.3668 50.5272C111.074 50.5272 118.859 74.4588 103.718 85.4552Z" fill="#5BBEA9"/>
</svg>
