<svg width="206" height="196" viewBox="0 0 206 196" fill="none" xmlns="http://www.w3.org/2000/svg">
<g clip-path="url(#clip0_18_750)">
<path d="M115.26 54.9H108.11V62.24H97.89V54.9H90.74V45.16H97.89V37.77H108.11V45.16H115.26V54.9Z" fill="#5BBEA9"/>
<path d="M141 0H65C58.4 0 53 5.4 53 12V88C53 94.6 58.4 100 65 100H141C147.6 100 153 94.6 153 88V12C153 5.4 147.6 0 141 0ZM123.08 57.74C123.55 59.17 123.76 60.58 123.76 61.93C123.76 71.9 112.01 78.87 103 72.33C100.56 74.1 97.92 74.88 95.37 74.88C87.21 74.88 79.94 66.9 82.92 57.74C79.18 55.03 77.51 51.15 77.51 47.32C77.51 40.66 82.56 34.14 90.59 34.14C92.55 28.13 97.77 25.12 103 25.12C108.23 25.12 113.45 28.13 115.41 34.14C128.05 34.14 133.31 50.31 123.08 57.74Z" fill="#5BBEA9"/>
</g>
<path d="M19.4045 137.512C20.1005 137.536 21.0125 137.56 22.1405 137.584C23.2925 137.608 24.4445 137.62 25.5965 137.62C26.7965 137.62 27.9485 137.608 29.0525 137.584C30.1565 137.56 30.9365 137.548 31.3925 137.548C33.8405 137.548 35.8565 137.776 37.4405 138.232C39.0485 138.688 40.2485 139.384 41.0405 140.32C41.8325 141.232 42.2285 142.396 42.2285 143.812C42.2285 144.7 42.0485 145.564 41.6885 146.404C41.3285 147.244 40.7165 148.012 39.8525 148.708C38.9885 149.38 37.8005 149.92 36.2885 150.328C34.8005 150.712 32.9045 150.904 30.6005 150.904H27.1445V150.184H30.2405C31.4645 150.184 32.3885 149.92 33.0125 149.392C33.6605 148.84 34.0925 148.12 34.3085 147.232C34.5485 146.32 34.6685 145.312 34.6685 144.208C34.6685 142.312 34.4045 140.848 33.8765 139.816C33.3725 138.76 32.4845 138.232 31.2125 138.232C30.3965 138.232 29.8685 138.436 29.6285 138.844C29.3885 139.252 29.2685 140.08 29.2685 141.328V159.184C29.2685 160.048 29.3285 160.696 29.4485 161.128C29.5925 161.56 29.8445 161.848 30.2045 161.992C30.5645 162.136 31.1045 162.232 31.8245 162.28V163C31.1285 162.952 30.2285 162.928 29.1245 162.928C28.0445 162.904 26.9405 162.892 25.8125 162.892C24.5165 162.892 23.2925 162.904 22.1405 162.928C21.0125 162.928 20.1005 162.952 19.4045 163V162.28C20.1485 162.232 20.7005 162.136 21.0605 161.992C21.4205 161.848 21.6605 161.56 21.7805 161.128C21.9005 160.696 21.9605 160.048 21.9605 159.184V141.328C21.9605 140.44 21.9005 139.792 21.7805 139.384C21.6605 138.952 21.4085 138.664 21.0245 138.52C20.6645 138.352 20.1245 138.256 19.4045 138.232V137.512ZM26.9285 150.292C27.7925 150.316 28.6085 150.364 29.3765 150.436C30.1445 150.508 30.8525 150.58 31.5005 150.652C32.1485 150.7 32.7005 150.736 33.1565 150.76C35.7245 150.88 37.6445 151.324 38.9165 152.092C40.2125 152.86 41.0045 153.988 41.2925 155.476L42.0485 159.22C42.2405 160.108 42.4565 160.72 42.6965 161.056C42.9365 161.392 43.2605 161.56 43.6685 161.56C43.9085 161.56 44.1125 161.524 44.2805 161.452C44.4485 161.38 44.6165 161.26 44.7845 161.092L45.2525 161.56C44.5085 162.304 43.6925 162.808 42.8045 163.072C41.9405 163.36 40.9565 163.504 39.8525 163.504C38.2925 163.504 37.0325 163.228 36.0725 162.676C35.1125 162.1 34.5245 161.08 34.3085 159.616L33.7685 156.016C33.6245 155.032 33.4445 154.156 33.2285 153.388C33.0125 152.62 32.7245 152.02 32.3645 151.588C32.0045 151.132 31.5125 150.904 30.8885 150.904H27.0005L26.9285 150.292ZM54.7098 143.812C56.8218 143.812 58.4778 144.436 59.6778 145.684C60.9018 146.908 61.5138 148.972 61.5138 151.876H50.2458L50.1738 151.192H56.2578C56.2818 150.016 56.2338 148.936 56.1138 147.952C55.9938 146.944 55.8018 146.14 55.5378 145.54C55.2738 144.94 54.9138 144.64 54.4578 144.64C53.8098 144.64 53.2818 145.156 52.8738 146.188C52.4658 147.196 52.2018 148.936 52.0818 151.408L52.2258 151.696C52.2018 151.936 52.1898 152.176 52.1898 152.416C52.1898 152.656 52.1898 152.908 52.1898 153.172C52.1898 154.852 52.3938 156.16 52.8018 157.096C53.2338 158.032 53.7618 158.68 54.3858 159.04C55.0338 159.4 55.6818 159.58 56.3298 159.58C56.6658 159.58 57.0618 159.532 57.5178 159.436C57.9978 159.34 58.5138 159.124 59.0658 158.788C59.6178 158.428 60.1578 157.888 60.6858 157.168L61.2978 157.384C61.0098 158.344 60.5418 159.304 59.8938 160.264C59.2698 161.2 58.4538 161.98 57.4458 162.604C56.4378 163.204 55.2138 163.504 53.7738 163.504C52.2378 163.504 50.8338 163.192 49.5618 162.568C48.3138 161.944 47.3178 160.912 46.5738 159.472C45.8298 158.032 45.4578 156.1 45.4578 153.676C45.4578 151.372 45.8658 149.5 46.6818 148.06C47.4978 146.596 48.6018 145.528 49.9938 144.856C51.4098 144.16 52.9818 143.812 54.7098 143.812ZM70.7633 143.812C71.8193 143.812 72.7433 143.932 73.5353 144.172C74.3513 144.388 74.9393 144.592 75.2993 144.784C76.1393 145.288 76.6553 144.976 76.8473 143.848H77.5673C77.5193 144.544 77.4833 145.396 77.4593 146.404C77.4353 147.388 77.4233 148.696 77.4233 150.328H76.7033C76.6073 149.44 76.3913 148.564 76.0553 147.7C75.7433 146.836 75.2753 146.116 74.6513 145.54C74.0513 144.964 73.2593 144.676 72.2753 144.676C71.6753 144.676 71.1713 144.856 70.7633 145.216C70.3553 145.576 70.1513 146.068 70.1513 146.692C70.1513 147.412 70.3673 148.06 70.7993 148.636C71.2313 149.188 71.7833 149.728 72.4553 150.256C73.1273 150.76 73.7993 151.3 74.4713 151.876C75.2153 152.476 75.8753 153.064 76.4513 153.64C77.0273 154.216 77.4833 154.852 77.8193 155.548C78.1793 156.22 78.3593 157.024 78.3593 157.96C78.3593 159.04 78.0233 160 77.3513 160.84C76.7033 161.68 75.8273 162.34 74.7233 162.82C73.6433 163.276 72.4313 163.504 71.0873 163.504C70.2473 163.504 69.5153 163.408 68.8913 163.216C68.2673 163.048 67.7633 162.844 67.3793 162.604C66.9953 162.412 66.6593 162.268 66.3713 162.172C66.1073 162.052 65.8433 161.992 65.5793 161.992C65.3393 161.992 65.1353 162.124 64.9673 162.388C64.7993 162.628 64.6673 162.916 64.5713 163.252H63.8513C63.8993 162.484 63.9353 161.548 63.9593 160.444C63.9833 159.34 63.9953 157.876 63.9953 156.052H64.7153C64.8593 157.324 65.1353 158.452 65.5433 159.436C65.9753 160.42 66.5153 161.2 67.1633 161.776C67.8353 162.328 68.6033 162.604 69.4673 162.604C69.8513 162.604 70.1993 162.532 70.5113 162.388C70.8233 162.244 71.0753 162.028 71.2673 161.74C71.4593 161.452 71.5553 161.08 71.5553 160.624C71.5553 159.568 71.2313 158.68 70.5833 157.96C69.9593 157.24 69.1673 156.448 68.2073 155.584C67.4873 154.912 66.8033 154.264 66.1553 153.64C65.5313 152.992 65.0153 152.296 64.6073 151.552C64.1993 150.784 63.9953 149.932 63.9953 148.996C63.9953 147.916 64.3073 146.992 64.9313 146.224C65.5793 145.456 66.4193 144.868 67.4513 144.46C68.4833 144.028 69.5873 143.812 70.7633 143.812ZM107.152 161.704L107.836 161.884C107.716 163.42 107.44 164.764 107.008 165.916C106.576 167.068 105.976 167.932 105.208 168.508C104.68 168.916 104.008 169.228 103.192 169.444C102.376 169.66 101.548 169.768 100.708 169.768C99.364 169.768 98.032 169.564 96.712 169.156C95.416 168.772 94.108 168.28 92.788 167.68C91.492 167.104 90.148 166.528 88.756 165.952C88.612 165.904 88.456 165.844 88.288 165.772C88.12 165.724 87.988 165.7 87.892 165.7C87.436 165.964 86.932 166.18 86.38 166.348C85.852 166.516 85.348 166.6 84.868 166.6C84.388 166.6 83.98 166.516 83.644 166.348C83.332 166.18 83.176 165.904 83.176 165.52C83.176 164.776 83.836 164.404 85.156 164.404C85.996 164.404 86.908 164.62 87.892 165.052C88.804 164.812 89.584 164.536 90.232 164.224C90.904 163.936 91.588 163.66 92.284 163.396C92.98 163.132 93.82 162.964 94.804 162.892L94.84 163.468C94.072 163.54 93.4 163.672 92.824 163.864C92.272 164.08 91.708 164.308 91.132 164.548C90.58 164.788 89.92 165.016 89.152 165.232C91.216 165.28 92.992 165.316 94.48 165.34C95.992 165.388 97.336 165.376 98.512 165.304C99.712 165.232 100.852 165.088 101.932 164.872C103.252 164.584 104.296 164.212 105.064 163.756C105.856 163.3 106.552 162.616 107.152 161.704ZM94.156 137.008C96.868 137.008 99.244 137.524 101.284 138.556C103.324 139.588 104.908 141.076 106.036 143.02C107.164 144.94 107.728 147.28 107.728 150.04C107.728 152.728 107.152 155.08 106 157.096C104.848 159.112 103.24 160.684 101.176 161.812C99.136 162.94 96.784 163.504 94.12 163.504C91.408 163.504 89.032 162.988 86.992 161.956C84.952 160.924 83.368 159.436 82.24 157.492C81.112 155.548 80.548 153.208 80.548 150.472C80.548 147.784 81.124 145.432 82.276 143.416C83.452 141.4 85.06 139.828 87.1 138.7C89.14 137.572 91.492 137.008 94.156 137.008ZM94.012 137.656C92.812 137.656 91.768 138.196 90.88 139.276C89.992 140.356 89.308 141.844 88.828 143.74C88.348 145.636 88.108 147.832 88.108 150.328C88.108 152.872 88.384 155.092 88.936 156.988C89.488 158.86 90.232 160.312 91.168 161.344C92.104 162.352 93.136 162.856 94.264 162.856C95.464 162.856 96.508 162.316 97.396 161.236C98.284 160.156 98.968 158.668 99.448 156.772C99.928 154.852 100.168 152.656 100.168 150.184C100.168 147.616 99.892 145.396 99.34 143.524C98.788 141.652 98.044 140.212 97.108 139.204C96.172 138.172 95.14 137.656 94.012 137.656ZM122.536 137.512V138.232C121.72 138.256 121.096 138.352 120.664 138.52C120.256 138.664 119.98 138.952 119.836 139.384C119.692 139.792 119.62 140.44 119.62 141.328V159.904C119.62 160.552 119.668 161.044 119.764 161.38C119.86 161.692 120.04 161.908 120.304 162.028C120.568 162.124 120.952 162.172 121.456 162.172H122.644C123.268 162.172 123.94 161.932 124.66 161.452C125.38 160.972 126.076 160.312 126.748 159.472C127.444 158.632 128.044 157.684 128.548 156.628C129.052 155.548 129.412 154.432 129.628 153.28H130.456C130.384 154.144 130.348 155.248 130.348 156.592C130.348 157.216 130.36 158.128 130.384 159.328C130.408 160.504 130.48 161.728 130.6 163C129.376 162.952 127.996 162.928 126.46 162.928C124.924 162.904 123.556 162.892 122.356 162.892C121.708 162.892 120.88 162.892 119.872 162.892C118.888 162.892 117.808 162.904 116.632 162.928C115.48 162.928 114.304 162.94 113.104 162.964C111.928 162.964 110.812 162.976 109.756 163V162.28C110.5 162.232 111.052 162.136 111.412 161.992C111.772 161.848 112.012 161.56 112.132 161.128C112.252 160.696 112.312 160.048 112.312 159.184V141.328C112.312 140.44 112.252 139.792 112.132 139.384C112.012 138.952 111.76 138.664 111.376 138.52C111.016 138.352 110.476 138.256 109.756 138.232V137.512C110.452 137.536 111.364 137.56 112.492 137.584C113.644 137.608 114.868 137.62 116.164 137.62C117.364 137.62 118.54 137.608 119.692 137.584C120.844 137.56 121.792 137.536 122.536 137.512ZM137.079 134.848C138.327 134.848 139.287 135.112 139.959 135.64C140.655 136.144 141.003 136.912 141.003 137.944C141.003 138.976 140.655 139.756 139.959 140.284C139.287 140.788 138.327 141.04 137.079 141.04C135.831 141.04 134.859 140.788 134.163 140.284C133.491 139.756 133.155 138.976 133.155 137.944C133.155 136.912 133.491 136.144 134.163 135.64C134.859 135.112 135.831 134.848 137.079 134.848ZM140.535 143.92V159.652C140.535 160.66 140.679 161.344 140.967 161.704C141.279 162.064 141.807 162.244 142.551 162.244V163C142.071 162.976 141.351 162.952 140.391 162.928C139.431 162.88 138.447 162.856 137.439 162.856C136.431 162.856 135.411 162.88 134.379 162.928C133.347 162.952 132.567 162.976 132.039 163V162.244C132.783 162.244 133.299 162.064 133.587 161.704C133.899 161.344 134.055 160.66 134.055 159.652V148.24C134.055 147.16 133.911 146.368 133.623 145.864C133.335 145.336 132.807 145.072 132.039 145.072V144.316C132.807 144.388 133.551 144.424 134.271 144.424C135.471 144.424 136.587 144.388 137.619 144.316C138.675 144.22 139.647 144.088 140.535 143.92ZM158.142 143.812C159.246 143.812 160.11 143.956 160.734 144.244C161.382 144.508 161.874 144.844 162.21 145.252C162.57 145.684 162.834 146.26 163.002 146.98C163.17 147.7 163.254 148.672 163.254 149.896V159.652C163.254 160.66 163.398 161.344 163.686 161.704C163.998 162.064 164.526 162.244 165.27 162.244V163C164.79 162.976 164.058 162.952 163.074 162.928C162.114 162.88 161.166 162.856 160.23 162.856C159.222 162.856 158.238 162.88 157.278 162.928C156.318 162.952 155.598 162.976 155.118 163V162.244C155.742 162.244 156.174 162.064 156.414 161.704C156.654 161.344 156.774 160.66 156.774 159.652V147.952C156.774 147.448 156.714 147.028 156.594 146.692C156.474 146.356 156.282 146.104 156.018 145.936C155.778 145.768 155.442 145.684 155.01 145.684C154.578 145.684 154.158 145.792 153.75 146.008C153.366 146.224 153.042 146.536 152.778 146.944C152.538 147.328 152.418 147.772 152.418 148.276V159.652C152.418 160.66 152.538 161.344 152.778 161.704C153.042 162.064 153.474 162.244 154.074 162.244V163C153.618 162.976 152.946 162.952 152.058 162.928C151.17 162.88 150.258 162.856 149.322 162.856C148.314 162.856 147.294 162.88 146.262 162.928C145.23 162.952 144.45 162.976 143.922 163V162.244C144.666 162.244 145.182 162.064 145.47 161.704C145.782 161.344 145.938 160.66 145.938 159.652V148.24C145.938 147.16 145.794 146.368 145.506 145.864C145.218 145.336 144.69 145.072 143.922 145.072V144.316C144.69 144.388 145.434 144.424 146.154 144.424C147.354 144.424 148.47 144.388 149.502 144.316C150.558 144.22 151.53 144.088 152.418 143.92V146.512C152.994 145.552 153.762 144.868 154.722 144.46C155.706 144.028 156.846 143.812 158.142 143.812ZM174.81 134.848V159.652C174.81 160.66 174.954 161.344 175.242 161.704C175.554 162.064 176.082 162.244 176.826 162.244V163C176.346 162.976 175.626 162.952 174.666 162.928C173.706 162.88 172.722 162.856 171.714 162.856C170.706 162.856 169.686 162.88 168.654 162.928C167.622 162.952 166.842 162.976 166.314 163V162.244C167.058 162.244 167.574 162.064 167.862 161.704C168.174 161.344 168.33 160.66 168.33 159.652V139.168C168.33 138.088 168.186 137.296 167.898 136.792C167.61 136.264 167.082 136 166.314 136V135.244C167.082 135.316 167.826 135.352 168.546 135.352C169.746 135.352 170.862 135.316 171.894 135.244C172.95 135.148 173.922 135.016 174.81 134.848ZM186.762 144.316V145.036C185.898 145.276 185.022 145.696 184.134 146.296C183.246 146.896 182.346 147.652 181.434 148.564L180.174 149.824L180.426 149.356L186.222 160.372C186.414 160.732 186.618 161.092 186.834 161.452C187.05 161.788 187.326 162.052 187.662 162.244V163C187.254 162.976 186.63 162.952 185.79 162.928C184.974 162.88 184.146 162.856 183.306 162.856C182.346 162.856 181.374 162.88 180.39 162.928C179.43 162.952 178.71 162.976 178.23 163V162.244C178.71 162.244 179.022 162.136 179.166 161.92C179.334 161.704 179.322 161.404 179.13 161.02L175.962 154.324C175.794 153.988 175.602 153.772 175.386 153.676C175.17 153.58 174.918 153.532 174.63 153.532V152.848C174.966 152.848 175.278 152.824 175.566 152.776C175.854 152.704 176.118 152.548 176.358 152.308L179.13 149.716C179.97 148.948 180.39 148.228 180.39 147.556C180.414 146.86 180.15 146.284 179.598 145.828C179.07 145.372 178.374 145.108 177.51 145.036V144.316C178.206 144.34 178.95 144.364 179.742 144.388C180.558 144.412 181.254 144.424 181.83 144.424C182.334 144.424 182.91 144.424 183.558 144.424C184.206 144.4 184.818 144.388 185.394 144.388C185.994 144.364 186.45 144.34 186.762 144.316Z" fill="#5BBEA9"/>
<path d="M4.864 190.112C4.11733 190.112 3.44533 189.984 2.848 189.728C2.25067 189.461 1.78133 189.088 1.44 188.608C1.09867 188.128 0.928 187.568 0.928 186.928H2.88C2.92267 187.408 3.10933 187.803 3.44 188.112C3.78133 188.421 4.256 188.576 4.864 188.576C5.49333 188.576 5.984 188.427 6.336 188.128C6.688 187.819 6.864 187.424 6.864 186.944C6.864 186.571 6.752 186.267 6.528 186.032C6.31467 185.797 6.04267 185.616 5.712 185.488C5.392 185.36 4.944 185.221 4.368 185.072C3.64267 184.88 3.05067 184.688 2.592 184.496C2.144 184.293 1.76 183.984 1.44 183.568C1.12 183.152 0.96 182.597 0.96 181.904C0.96 181.264 1.12 180.704 1.44 180.224C1.76 179.744 2.208 179.376 2.784 179.12C3.36 178.864 4.02667 178.736 4.784 178.736C5.86133 178.736 6.74133 179.008 7.424 179.552C8.11733 180.085 8.50133 180.821 8.576 181.76H6.56C6.528 181.355 6.336 181.008 5.984 180.72C5.632 180.432 5.168 180.288 4.592 180.288C4.06933 180.288 3.64267 180.421 3.312 180.688C2.98133 180.955 2.816 181.339 2.816 181.84C2.816 182.181 2.91733 182.464 3.12 182.688C3.33333 182.901 3.6 183.072 3.92 183.2C4.24 183.328 4.67733 183.467 5.232 183.616C5.968 183.819 6.56533 184.021 7.024 184.224C7.49333 184.427 7.888 184.741 8.208 185.168C8.53867 185.584 8.704 186.144 8.704 186.848C8.704 187.413 8.54933 187.947 8.24 188.448C7.94133 188.949 7.49867 189.355 6.912 189.664C6.336 189.963 5.65333 190.112 4.864 190.112ZM12.9843 182.672V187.552C12.9843 187.883 13.0589 188.123 13.2083 188.272C13.3683 188.411 13.6349 188.48 14.0083 188.48H15.1283V190H13.6883C12.8669 190 12.2376 189.808 11.8003 189.424C11.3629 189.04 11.1443 188.416 11.1443 187.552V182.672H10.1043V181.184H11.1443V178.992H12.9843V181.184H15.1283V182.672H12.9843ZM16.2014 185.552C16.2014 184.667 16.3827 183.883 16.7454 183.2C17.1187 182.517 17.62 181.989 18.2494 181.616C18.8894 181.232 19.5934 181.04 20.3614 181.04C21.0547 181.04 21.6574 181.179 22.1694 181.456C22.692 181.723 23.108 182.059 23.4174 182.464V181.184H25.2574V190H23.4174V188.688C23.108 189.104 22.6867 189.451 22.1534 189.728C21.62 190.005 21.012 190.144 20.3294 190.144C19.572 190.144 18.8787 189.952 18.2494 189.568C17.62 189.173 17.1187 188.629 16.7454 187.936C16.3827 187.232 16.2014 186.437 16.2014 185.552ZM23.4174 185.584C23.4174 184.976 23.2894 184.448 23.0334 184C22.788 183.552 22.4627 183.211 22.0574 182.976C21.652 182.741 21.2147 182.624 20.7454 182.624C20.276 182.624 19.8387 182.741 19.4334 182.976C19.028 183.2 18.6974 183.536 18.4414 183.984C18.196 184.421 18.0734 184.944 18.0734 185.552C18.0734 186.16 18.196 186.693 18.4414 187.152C18.6974 187.611 19.028 187.963 19.4334 188.208C19.8494 188.443 20.2867 188.56 20.7454 188.56C21.2147 188.56 21.652 188.443 22.0574 188.208C22.4627 187.973 22.788 187.632 23.0334 187.184C23.2894 186.725 23.4174 186.192 23.4174 185.584ZM35.5891 181.184L30.1811 194.144H28.2931L30.0851 189.856L26.6131 181.184H28.6451L31.1251 187.904L33.7011 181.184H35.5891ZM44.7859 190.112C44.0392 190.112 43.3672 189.984 42.7699 189.728C42.1725 189.461 41.7032 189.088 41.3619 188.608C41.0205 188.128 40.8499 187.568 40.8499 186.928H42.8019C42.8445 187.408 43.0312 187.803 43.3619 188.112C43.7032 188.421 44.1779 188.576 44.7859 188.576C45.4152 188.576 45.9059 188.427 46.2579 188.128C46.6099 187.819 46.7859 187.424 46.7859 186.944C46.7859 186.571 46.6739 186.267 46.4499 186.032C46.2365 185.797 45.9645 185.616 45.6339 185.488C45.3139 185.36 44.8659 185.221 44.2899 185.072C43.5645 184.88 42.9725 184.688 42.5139 184.496C42.0659 184.293 41.6819 183.984 41.3619 183.568C41.0419 183.152 40.8819 182.597 40.8819 181.904C40.8819 181.264 41.0419 180.704 41.3619 180.224C41.6819 179.744 42.1299 179.376 42.7059 179.12C43.2819 178.864 43.9485 178.736 44.7059 178.736C45.7832 178.736 46.6632 179.008 47.3459 179.552C48.0392 180.085 48.4232 180.821 48.4979 181.76H46.4819C46.4499 181.355 46.2579 181.008 45.9059 180.72C45.5539 180.432 45.0899 180.288 44.5139 180.288C43.9912 180.288 43.5645 180.421 43.2339 180.688C42.9032 180.955 42.7379 181.339 42.7379 181.84C42.7379 182.181 42.8392 182.464 43.0419 182.688C43.2552 182.901 43.5219 183.072 43.8419 183.2C44.1619 183.328 44.5992 183.467 45.1539 183.616C45.8899 183.819 46.4872 184.021 46.9459 184.224C47.4152 184.427 47.8099 184.741 48.1299 185.168C48.4605 185.584 48.6259 186.144 48.6259 186.848C48.6259 187.413 48.4712 187.947 48.1619 188.448C47.8632 188.949 47.4205 189.355 46.8339 189.664C46.2579 189.963 45.5752 190.112 44.7859 190.112ZM50.1701 185.552C50.1701 184.667 50.3515 183.883 50.7141 183.2C51.0875 182.517 51.5888 181.989 52.2181 181.616C52.8581 181.232 53.5621 181.04 54.3301 181.04C55.0235 181.04 55.6261 181.179 56.1381 181.456C56.6608 181.723 57.0768 182.059 57.3861 182.464V181.184H59.2261V190H57.3861V188.688C57.0768 189.104 56.6555 189.451 56.1221 189.728C55.5888 190.005 54.9808 190.144 54.2981 190.144C53.5408 190.144 52.8475 189.952 52.2181 189.568C51.5888 189.173 51.0875 188.629 50.7141 187.936C50.3515 187.232 50.1701 186.437 50.1701 185.552ZM57.3861 185.584C57.3861 184.976 57.2581 184.448 57.0021 184C56.7568 183.552 56.4315 183.211 56.0261 182.976C55.6208 182.741 55.1835 182.624 54.7141 182.624C54.2448 182.624 53.8075 182.741 53.4021 182.976C52.9968 183.2 52.6661 183.536 52.4101 183.984C52.1648 184.421 52.0421 184.944 52.0421 185.552C52.0421 186.16 52.1648 186.693 52.4101 187.152C52.6661 187.611 52.9968 187.963 53.4021 188.208C53.8181 188.443 54.2555 188.56 54.7141 188.56C55.1835 188.56 55.6208 188.443 56.0261 188.208C56.4315 187.973 56.7568 187.632 57.0021 187.184C57.2581 186.725 57.3861 186.192 57.3861 185.584ZM65.3179 182.672H63.6859V190H61.8459V182.672H60.8059V181.184H61.8459V180.56C61.8459 179.547 62.1125 178.811 62.6459 178.352C63.1899 177.883 64.0379 177.648 65.1899 177.648V179.168C64.6352 179.168 64.2459 179.275 64.0219 179.488C63.7979 179.691 63.6859 180.048 63.6859 180.56V181.184H65.3179V182.672ZM75.0144 185.376C75.0144 185.707 74.993 186.005 74.9504 186.272H68.2144C68.2677 186.976 68.529 187.541 68.9984 187.968C69.4677 188.395 70.0437 188.608 70.7264 188.608C71.7077 188.608 72.401 188.197 72.8064 187.376H74.7744C74.5077 188.187 74.0224 188.853 73.3184 189.376C72.625 189.888 71.761 190.144 70.7264 190.144C69.8837 190.144 69.1264 189.957 68.4544 189.584C67.793 189.2 67.2704 188.667 66.8864 187.984C66.513 187.291 66.3264 186.491 66.3264 185.584C66.3264 184.677 66.5077 183.883 66.8704 183.2C67.2437 182.507 67.761 181.973 68.4224 181.6C69.0944 181.227 69.8624 181.04 70.7264 181.04C71.5584 181.04 72.2997 181.221 72.9504 181.584C73.601 181.947 74.1077 182.459 74.4704 183.12C74.833 183.771 75.0144 184.523 75.0144 185.376ZM73.1104 184.8C73.0997 184.128 72.8597 183.589 72.3904 183.184C71.921 182.779 71.3397 182.576 70.6464 182.576C70.017 182.576 69.4784 182.779 69.0304 183.184C68.5824 183.579 68.3157 184.117 68.2304 184.8H73.1104ZM87.6696 187.728H83.0136L82.2136 190H80.3096L84.2936 178.864H86.4056L90.3896 190H88.4696L87.6696 187.728ZM87.1576 186.24L85.3496 181.072L83.5256 186.24H87.1576ZM96.5699 181.04C97.2632 181.04 97.8819 181.184 98.4259 181.472C98.9805 181.76 99.4125 182.187 99.7219 182.752C100.031 183.317 100.186 184 100.186 184.8V190H98.3779V185.072C98.3779 184.283 98.1805 183.68 97.7859 183.264C97.3912 182.837 96.8525 182.624 96.1699 182.624C95.4872 182.624 94.9432 182.837 94.5379 183.264C94.1432 183.68 93.9459 184.283 93.9459 185.072V190H92.1219V181.184H93.9459V182.192C94.2445 181.829 94.6232 181.547 95.0819 181.344C95.5512 181.141 96.0472 181.04 96.5699 181.04ZM101.905 185.552C101.905 184.667 102.086 183.883 102.449 183.2C102.822 182.517 103.323 181.989 103.953 181.616C104.593 181.232 105.302 181.04 106.081 181.04C106.657 181.04 107.222 181.168 107.777 181.424C108.342 181.669 108.79 182 109.121 182.416V178.16H110.961V190H109.121V188.672C108.822 189.099 108.406 189.451 107.873 189.728C107.35 190.005 106.747 190.144 106.065 190.144C105.297 190.144 104.593 189.952 103.953 189.568C103.323 189.173 102.822 188.629 102.449 187.936C102.086 187.232 101.905 186.437 101.905 185.552ZM109.121 185.584C109.121 184.976 108.993 184.448 108.737 184C108.491 183.552 108.166 183.211 107.761 182.976C107.355 182.741 106.918 182.624 106.449 182.624C105.979 182.624 105.542 182.741 105.137 182.976C104.731 183.2 104.401 183.536 104.145 183.984C103.899 184.421 103.777 184.944 103.777 185.552C103.777 186.16 103.899 186.693 104.145 187.152C104.401 187.611 104.731 187.963 105.137 188.208C105.553 188.443 105.99 188.56 106.449 188.56C106.918 188.56 107.355 188.443 107.761 188.208C108.166 187.973 108.491 187.632 108.737 187.184C108.993 186.725 109.121 186.192 109.121 185.584ZM116.905 184.416C116.905 183.328 117.155 182.352 117.657 181.488C118.169 180.624 118.857 179.952 119.721 179.472C120.595 178.981 121.55 178.736 122.585 178.736C123.769 178.736 124.819 179.029 125.737 179.616C126.665 180.192 127.337 181.013 127.753 182.08H125.561C125.273 181.493 124.873 181.056 124.361 180.768C123.849 180.48 123.257 180.336 122.585 180.336C121.849 180.336 121.193 180.501 120.617 180.832C120.041 181.163 119.587 181.637 119.257 182.256C118.937 182.875 118.777 183.595 118.777 184.416C118.777 185.237 118.937 185.957 119.257 186.576C119.587 187.195 120.041 187.675 120.617 188.016C121.193 188.347 121.849 188.512 122.585 188.512C123.257 188.512 123.849 188.368 124.361 188.08C124.873 187.792 125.273 187.355 125.561 186.768H127.753C127.337 187.835 126.665 188.656 125.737 189.232C124.819 189.808 123.769 190.096 122.585 190.096C121.539 190.096 120.585 189.856 119.721 189.376C118.857 188.885 118.169 188.208 117.657 187.344C117.155 186.48 116.905 185.504 116.905 184.416ZM133.712 190.144C132.88 190.144 132.128 189.957 131.456 189.584C130.784 189.2 130.256 188.667 129.872 187.984C129.488 187.291 129.296 186.491 129.296 185.584C129.296 184.688 129.493 183.893 129.888 183.2C130.282 182.507 130.821 181.973 131.504 181.6C132.186 181.227 132.949 181.04 133.792 181.04C134.634 181.04 135.397 181.227 136.08 181.6C136.762 181.973 137.301 182.507 137.696 183.2C138.09 183.893 138.288 184.688 138.288 185.584C138.288 186.48 138.085 187.275 137.68 187.968C137.274 188.661 136.72 189.2 136.016 189.584C135.322 189.957 134.554 190.144 133.712 190.144ZM133.712 188.56C134.181 188.56 134.618 188.448 135.024 188.224C135.44 188 135.776 187.664 136.032 187.216C136.288 186.768 136.416 186.224 136.416 185.584C136.416 184.944 136.293 184.405 136.048 183.968C135.802 183.52 135.477 183.184 135.072 182.96C134.666 182.736 134.229 182.624 133.76 182.624C133.29 182.624 132.853 182.736 132.448 182.96C132.053 183.184 131.738 183.52 131.504 183.968C131.269 184.405 131.152 184.944 131.152 185.584C131.152 186.533 131.392 187.269 131.872 187.792C132.362 188.304 132.976 188.56 133.712 188.56ZM144.539 181.04C145.232 181.04 145.851 181.184 146.395 181.472C146.949 181.76 147.381 182.187 147.691 182.752C148 183.317 148.155 184 148.155 184.8V190H146.347V185.072C146.347 184.283 146.149 183.68 145.755 183.264C145.36 182.837 144.821 182.624 144.139 182.624C143.456 182.624 142.912 182.837 142.507 183.264C142.112 183.68 141.915 184.283 141.915 185.072V190H140.091V181.184H141.915V182.192C142.213 181.829 142.592 181.547 143.051 181.344C143.52 181.141 144.016 181.04 144.539 181.04ZM154.929 181.04C155.623 181.04 156.241 181.184 156.785 181.472C157.34 181.76 157.772 182.187 158.081 182.752C158.391 183.317 158.545 184 158.545 184.8V190H156.737V185.072C156.737 184.283 156.54 183.68 156.145 183.264C155.751 182.837 155.212 182.624 154.529 182.624C153.847 182.624 153.303 182.837 152.897 183.264C152.503 183.68 152.305 184.283 152.305 185.072V190H150.481V181.184H152.305V182.192C152.604 181.829 152.983 181.547 153.441 181.344C153.911 181.141 154.407 181.04 154.929 181.04ZM168.952 185.376C168.952 185.707 168.931 186.005 168.888 186.272H162.152C162.205 186.976 162.467 187.541 162.936 187.968C163.405 188.395 163.981 188.608 164.664 188.608C165.645 188.608 166.339 188.197 166.744 187.376H168.712C168.445 188.187 167.96 188.853 167.256 189.376C166.563 189.888 165.699 190.144 164.664 190.144C163.821 190.144 163.064 189.957 162.392 189.584C161.731 189.2 161.208 188.667 160.824 187.984C160.451 187.291 160.264 186.491 160.264 185.584C160.264 184.677 160.445 183.883 160.808 183.2C161.181 182.507 161.699 181.973 162.36 181.6C163.032 181.227 163.8 181.04 164.664 181.04C165.496 181.04 166.237 181.221 166.888 181.584C167.539 181.947 168.045 182.459 168.408 183.12C168.771 183.771 168.952 184.523 168.952 185.376ZM167.048 184.8C167.037 184.128 166.797 183.589 166.328 183.184C165.859 182.779 165.277 182.576 164.584 182.576C163.955 182.576 163.416 182.779 162.968 183.184C162.52 183.579 162.253 184.117 162.168 184.8H167.048ZM170.139 185.584C170.139 184.677 170.32 183.883 170.683 183.2C171.056 182.507 171.568 181.973 172.219 181.6C172.87 181.227 173.616 181.04 174.459 181.04C175.526 181.04 176.406 181.296 177.099 181.808C177.803 182.309 178.278 183.029 178.523 183.968H176.555C176.395 183.531 176.139 183.189 175.787 182.944C175.435 182.699 174.992 182.576 174.459 182.576C173.712 182.576 173.115 182.843 172.667 183.376C172.23 183.899 172.011 184.635 172.011 185.584C172.011 186.533 172.23 187.275 172.667 187.808C173.115 188.341 173.712 188.608 174.459 188.608C175.515 188.608 176.214 188.144 176.555 187.216H178.523C178.267 188.112 177.787 188.827 177.083 189.36C176.379 189.883 175.504 190.144 174.459 190.144C173.616 190.144 172.87 189.957 172.219 189.584C171.568 189.2 171.056 188.667 170.683 187.984C170.32 187.291 170.139 186.491 170.139 185.584ZM182.469 182.672V187.552C182.469 187.883 182.543 188.123 182.693 188.272C182.853 188.411 183.119 188.48 183.493 188.48H184.613V190H183.173C182.351 190 181.722 189.808 181.285 189.424C180.847 189.04 180.629 188.416 180.629 187.552V182.672H179.589V181.184H180.629V178.992H182.469V181.184H184.613V182.672H182.469ZM194.374 185.376C194.374 185.707 194.352 186.005 194.31 186.272H187.574C187.627 186.976 187.888 187.541 188.358 187.968C188.827 188.395 189.403 188.608 190.086 188.608C191.067 188.608 191.76 188.197 192.166 187.376H194.134C193.867 188.187 193.382 188.853 192.678 189.376C191.984 189.888 191.12 190.144 190.086 190.144C189.243 190.144 188.486 189.957 187.814 189.584C187.152 189.2 186.63 188.667 186.246 187.984C185.872 187.291 185.686 186.491 185.686 185.584C185.686 184.677 185.867 183.883 186.23 183.2C186.603 182.507 187.12 181.973 187.782 181.6C188.454 181.227 189.222 181.04 190.086 181.04C190.918 181.04 191.659 181.221 192.31 181.584C192.96 181.947 193.467 182.459 193.83 183.12C194.192 183.771 194.374 184.523 194.374 185.376ZM192.47 184.8C192.459 184.128 192.219 183.589 191.75 183.184C191.28 182.779 190.699 182.576 190.006 182.576C189.376 182.576 188.838 182.779 188.39 183.184C187.942 183.579 187.675 184.117 187.59 184.8H192.47ZM195.561 185.552C195.561 184.667 195.742 183.883 196.105 183.2C196.478 182.517 196.979 181.989 197.609 181.616C198.249 181.232 198.958 181.04 199.737 181.04C200.313 181.04 200.878 181.168 201.433 181.424C201.998 181.669 202.446 182 202.777 182.416V178.16H204.617V190H202.777V188.672C202.478 189.099 202.062 189.451 201.529 189.728C201.006 190.005 200.403 190.144 199.721 190.144C198.953 190.144 198.249 189.952 197.609 189.568C196.979 189.173 196.478 188.629 196.105 187.936C195.742 187.232 195.561 186.437 195.561 185.552ZM202.777 185.584C202.777 184.976 202.649 184.448 202.393 184C202.147 183.552 201.822 183.211 201.417 182.976C201.011 182.741 200.574 182.624 200.105 182.624C199.635 182.624 199.198 182.741 198.793 182.976C198.387 183.2 198.057 183.536 197.801 183.984C197.555 184.421 197.433 184.944 197.433 185.552C197.433 186.16 197.555 186.693 197.801 187.152C198.057 187.611 198.387 187.963 198.793 188.208C199.209 188.443 199.646 188.56 200.105 188.56C200.574 188.56 201.011 188.443 201.417 188.208C201.822 187.973 202.147 187.632 202.393 187.184C202.649 186.725 202.777 186.192 202.777 185.584Z" fill="#5BBEA9"/>
<defs>
<clipPath id="clip0_18_750">
<rect width="100" height="100" fill="white" transform="translate(53)"/>
</clipPath>
</defs>
</svg>
